/* XPM */
static char *_70a1a81f5264e21e25db41d4aae0417YdRhKAk92vB3Ze6v[] = {
/* columns rows colors chars-per-pixel */
"64 64 251 2 ",
"   c #6C0101",
".  c #660206",
"X  c #740201",
"o  c #7B0201",
"O  c #7B0C04",
"+  c #7C1211",
"@  c #750517",
"#  c #830202",
"$  c #8B0302",
"%  c #860A07",
"&  c #930302",
"*  c #9C0302",
"=  c #960B08",
"-  c #87130B",
";  c #9C1109",
":  c #94180B",
">  c #891616",
",  c #981813",
"<  c #840616",
"1  c #A40302",
"2  c #AC0302",
"3  c #A40A05",
"4  c #A90B09",
"5  c #B30302",
"6  c #BB0302",
"7  c #BD0B02",
"8  c #B30C09",
"9  c #A6150B",
"0  c #BA170C",
"q  c #A91915",
"w  c #B51412",
"e  c #892218",
"r  c #933016",
"t  c #B9250C",
"y  c #A82815",
"u  c #B92813",
"i  c #A63416",
"p  c #B33415",
"a  c #8E1728",
"s  c #923632",
"d  c #B43326",
"f  c #B61A21",
"g  c #C30302",
"h  c #CB0302",
"j  c #C20A06",
"k  c #CC0A04",
"l  c #D40301",
"z  c #DC0201",
"x  c #D70805",
"c  c #C8170B",
"v  c #D71707",
"b  c #CD1B10",
"n  c #E40202",
"m  c #EB0302",
"M  c #EC0905",
"N  c #E40C09",
"B  c #F30302",
"V  c #FC0403",
"C  c #F40905",
"Z  c #FC0906",
"A  c #E61609",
"S  c #F7180B",
"D  c #E51F12",
"F  c #CA290D",
"G  c #DE2405",
"H  c #C32A14",
"J  c #CA2713",
"K  c #D52814",
"L  c #CB3C1A",
"P  c #CB3516",
"I  c #D53B19",
"U  c #C7360C",
"Y  c #E72607",
"T  c #E82716",
"R  c #E7351A",
"E  c #F52917",
"W  c #C63A25",
"Q  c #E93824",
"!  c #A64119",
"~  c #B55117",
"^  c #B06215",
"/  c #974826",
"(  c #914D2C",
")  c #AE482A",
"_  c #B26A28",
"`  c #CD4619",
"'  c #D64617",
"]  c #DC541B",
"[  c #DB5C1C",
"{  c #D5571B",
"}  c #C84F11",
"|  c #E2541A",
" . c #E44616",
".. c #DD6B1E",
"X. c #DA631D",
"o. c #DD771C",
"O. c #CF6E14",
"+. c #E1641C",
"@. c #E26C1E",
"#. c #E4751E",
"$. c #E67A1D",
"%. c #CA4724",
"&. c #D64829",
"*. c #D95929",
"=. c #CB5531",
"-. c #E74926",
";. c #E4562D",
":. c #E75B35",
">. c #F65935",
",. c #F54A28",
"<. c #DB6821",
"1. c #DD7521",
"2. c #D2623D",
"3. c #CD732F",
"4. c #E37C23",
"5. c #E37421",
"6. c #E8683A",
"7. c #E86B28",
"8. c #9B5756",
"9. c #AB4C45",
"0. c #9E7E44",
"q. c #9F6462",
"w. c #AA6966",
"e. c #B57571",
"r. c #BF7250",
"t. c #CC5649",
"y. c #D66648",
"u. c #D5704F",
"i. c #EF7043",
"p. c #CB7268",
"a. c #CB9B06",
"s. c #D08E12",
"d. c #E38B15",
"f. c #DAAA06",
"g. c #D8AA1A",
"h. c #D5B017",
"j. c #E4A702",
"k. c #E6B905",
"l. c #E4B614",
"z. c #CB982D",
"x. c #D08C2B",
"c. c #E38425",
"v. c #E88A23",
"b. c #EA9325",
"n. c #E79529",
"m. c #E99928",
"M. c #D7AD30",
"N. c #EDAB2C",
"B. c #E9A429",
"V. c #EEB42D",
"C. c #E2B426",
"Z. c #F2BC2D",
"A. c #F0B02B",
"S. c #E6B132",
"D. c #EEC909",
"F. c #EFC918",
"G. c #FCEE16",
"H. c #FEF115",
"J. c #FEF219",
"K. c #FEF10D",
"L. c #E4C521",
"P. c #F4CB2B",
"I. c #EBCA35",
"U. c #F1CD33",
"Y. c #F5D830",
"T. c #FBEA3A",
"R. c #FDF937",
"E. c #FBEE2F",
"W. c #DBC634",
"Q. c #B58C48",
"!. c #B9857E",
"~. c #F38845",
"^. c #F89A53",
"/. c #EE8B47",
"(. c #DFAC42",
"). c #DAB956",
"_. c #DEBA47",
"`. c #ECB450",
"'. c #C3A872",
"]. c #F9A966",
"[. c #E7AE70",
"{. c #D89364",
"}. c #DFC25B",
"|. c #E4C346",
" X c #E8C75A",
".X c #F7D157",
"XX c #FDF24A",
"oX c #FEF443",
"OX c #FBEA57",
"+X c #FDF252",
"@X c #F8EC49",
"#X c #DFC168",
"$X c #E6CA7A",
"%X c #F6C979",
"&X c #EED475",
"*X c #EFCF6D",
"=X c #FFF565",
"-X c #F7E761",
";X c #D77F83",
":X c #CA9F9F",
">X c #D2918E",
",X c #D6B191",
"<X c #E6A98A",
"1X c #EDBF80",
"2X c #D7A6A7",
"3X c #DBB7B7",
"4X c #CCAFAD",
"5X c #E4B5A5",
"6X c #DEC286",
"7X c #E5CA85",
"8X c #E9D389",
"9X c #F1DE98",
"0X c #EDCD92",
"qX c #FEF68B",
"wX c #FCF485",
"eX c #EEE399",
"rX c #F3E798",
"tX c #FAED8D",
"yX c #DEC1BD",
"uX c #EEDEA7",
"iX c #EDD6B9",
"pX c #FEF7AB",
"aX c #F8F6A8",
"sX c #EEE0B7",
"dX c #F4E6BC",
"fX c #F1E9AE",
"gX c #DFBEC2",
"hX c #DDC7C6",
"jX c #E6CBC8",
"kX c #E8D2C9",
"lX c #F1D7C8",
"zX c #E9D8D8",
"xX c #F0D4D1",
"cX c #F4E8C5",
"vX c #FDF8C8",
"bX c #F2ECD7",
"nX c #F6F3DC",
"mX c #F9F2D2",
"MX c #EFE5CE",
"NX c #EDE2E3",
"BX c #EEEEEE",
"VX c #EDE6E5",
"CX c #F3EDE9",
"ZX c #FAF7EC",
"AX c #F9F7E7",
"SX c #F6F6F6",
"DX c #F6F6FB",
"FX c #F7FAFC",
"GX c #FBFEFE",
"HX c #F8F8F3",
"JX c #EEECF0",
/* pixels */
"SXSXSXSXSXSXSXSXSXSXSXSXSXSXSXSXSXSXSXSXSXSXSXSXSXSXSXSXSXSXGXgX>X2X2X>XCXDXSXSXSXSXSXSXSXSXSXSXSXSXSXSXSXSXSXSXSXSXSXSXSXSXSXSX",
"SXSXSXSXSXSXSXSXSXSXSXSXSXSXSXSXSXSXSXSXSXSXSXSXSXSXSXSXSXSXGX3XzXGXGX3XNXSXSXSXSXSXSXSXSXSXSXSXSXSXSXSXSXSXSXSXSXSXSXSXSXSXSXSX",
"SXSXSXSXSXSXSXSXSXSXSXSXSXSXSXSXSXSXSXSXSXSXSXSXSXSXSXSXSXSXGX3XzXDXGX3XNXSXSXSXSXSXSXSXSXSXSXSXSXSXSXSXSXSXSXSXSXSXSXSXSXSXSXSX",
"SXSXSXSXSXSXSXSXSXSXSXSXSXSXSXSXSXSXSXSXSXSXSXSXSXSXSXSXSXSXGX3XzXSXGX3XNXSXSXSXSXSXSXSXSXSXSXSXSXSXSXSXSXSXSXSXSXSXSXSXSXSXSXSX",
"SXSXSXSXSXSXSXSXSXSXSXSXSXSXSXSXSXSXSXSXSXSXSXSXSXSXSXSXSXSXGX3XzXFXFX3XNXDXSXSXSXSXSXSXSXSXSXSXSXSXSXSXSXSXSXSXSXSXSXSXSXSXSXSX",
"SXSXSXSXSXSXSXSXSXSXSXSXSXSXSXSXSXSXSXSXSXSXSXSXSXSXSXSXSXDXGXgXzXGXGX3XVXGXDXSXSXSXSXSXSXSXSXSXSXSXSXSXSXSXSXSXSXSXSXSXSXSXSXSX",
"SXSXSXSXSXSXSXSXSXSXSXSXSXSXSXSXSXSXSXSXSXSXSXSXSXSXDXDXSXnXcX,X7XeX8X,XlXMXbXSXDXDXSXSXSXSXSXSXSXSXSXSXSXSXSXSXSXSXSXSXSXSXSXSX",
"SXSXSXSXSXSXSXSXSXSXSXSXSXSXSXSXSXSXSXSXSXSXSXSXSXDXCXnXrXP.k.a.k.k.a.(.[.(.M.uXcXbXFXSXSXSXSXSXSXSXSXSXSXSXSXSXSXSXSXSXSXSXSXSX",
"SXSXSXSXSXSXSXSXSXSXSXSXSXSXSXSXSXSXSXSXSXSXSXSXDXsX$XmXtXF.l.a.k.k.a._.0X(.g.eXrX_.MXDXSXSXSXSXSXSXSXSXSXSXSXSXSXSXSXSXSXSXSXSX",
"SXSXSXSXSXSXSXSXSXSXSXSXSXSXSXSXSXSXSXSXSXSXSXDXGXuX#XiX*XC.g.L.L.L.L.M.`.M.s.[.0XM.uXGXSXSXSXSXSXSXSXSXSXSXSXSXSXSXSXSXSXSXSXSX",
"SXSXSXSXSXSXSXSXSXSXSXSXSXSXSXSXSXSXSXSXSXGXGXNX2Xr.~ _ s.x.z.U.M.W.T.C.C.x.3.^ ~ ~ p.hXSXGXGXSXSXSXSXSXSXSXSXSXSXSXSXSXSXSXSXSX",
"SXSXSXSXSXSXSXSXSXSXSXSXSXSXSXSXSXSXSXGXSX3X8.+ X % y i ! ! : ! x.z.z.3.! - i i y : o % s e.zXGXGXSXSXSXSXSXSXSXSXSXSXSXSXSXSXSX",
"SXSXSXSXSXSXSXSXSXSXSXSXSXSXSXSXSXGXSX:X) o X o # # # # # ; ; $ $ & & $ $ $ $ # # # o % ,   + w.kXGXSXSXSXSXSXSXSXSXSXSXSXSXSXSX",
"SXSXSXSXSXSXSXSXSXSXSXSXSXSXSXSXGX3Xs : o o % $ $ & & * * u t 3 q 2 1 1 1 1 1 * * * & $ d , X   e !.VXGXSXSXSXSXSXSXSXSXSXSXSXSX",
"SXSXSXSXSXSXSXSXSXSXSXSXSXSXSXSXw.  y = # $ & * * 1 2 2 2 L %.8 w 6 6 6 5 5 5 5 2 2 1 * q =.$ > - O / 4XGXSXSXSXSXSXSXSXSXSXSXSX",
"SXSXSXSXSXSXSXSXSXSXSXSXBXFXzXs   y u $ * 1 1 2 5 5 6 6 6 *.*.g h h h h h g g g 6 6 6 5 5 u.q ; = # : e !.GXSXSXSXSXSXSXSXSXSXSX",
"SXSXSXSXSXSXSXSXSXSXSXSXGXjXe X = %.3 1 2 5 6 6 g h h h h 6.:.l x l z z z x l l l k h k g u.W 2 2 * $ ) - w.GXSXSXSXSXSXSXSXSXSX",
"SXSXSXSXSXSXSXSXSXSXSXGXxX, # & u %.2 6 6 g h k l x z z z :.6.z n n n n n n n n z z z x l i.&.g g 5 1 9 _ o e.GXSXSXSXSXSXSXSXSX",
"SXSXSXSXSXSXSXSXSXSXDXCXd $ = 1 &.P 6 k k l x z z n n m n 6.i.m M m m m m m m m m n n n z :.:.l k h g 2 =.i # >XGXSXSXSXSXSXSXSX",
"SXSXSXSXSXSXSXSXSXSXGXt.1 = 2 6 6.K h x z z n n m m m M m >.^.B B B B B B V B B B B B C m >.i.n x z x g H 2.& 9 kXGXSXSXSXSXSXSX",
"SXSXSXSXSXSXSXSXSXGX2X7 3 5 g k ~.v z n n m m m B B V V V >.].V V V V V V V V V V V V Z V >.i.B M m m z k 6.w * y.SXSXSXSXSXSXSX",
"SXSXSXSXSXSXSXSXSXJXW 7 5 g l v /.N m m B B B V V V V V V >.].V V V V V V V V V V V V Z V >.i.V Z V B C z 6.P 1 t 5XGXSXSXSXSXSX",
"SXSXSXSXSXSXSXSXGX:Xv 7 g x n T ^.C B V V V V V V V V V V ,.].B B B B B B B B B B B B B B >.>.B Z Z V Z B >.-.6 8 u.CXDXSXSXSXSX",
"SXSXSXSXSXSXSXSXFXt.G g x m B E ].Z V V V V V V B B B B B E ].B B B B B m m m m m m m m n :.Q n m M C C B ,.>.l 6 *.iXGXSXSXSXSX",
"SXSXSXSXSXSXSXGXzXF Y l M C V S ].S V B B B B m m m m m B E ^.B B B B B m m m m n n n n z :.T z z z z n n R >.l h I <XFXSXSXSXSX",
"SXSXSXSXSXSXSXGX2XG Y z C V V C ^.S m m m m m m m m m m m A ^.C m B m m m m m n n n z z z :.v l x x x x l I ;.h g K ^.JXSXSXSXSX",
"SXSXSXSXSXSXSXGX;XY Y n B C M n i.R n n n n n n n n m m m M ~.M m m m m m m m n n z z l x ;.k h h h h k h I &.6 5 0 i.zXGXSXSXSX",
"SXSXSXSXSXSXSXGXp.Y A z n n x z ;.-.z z z z z n n n n m m m 6.A m m m m n n n n z z l h k &.g g 6 6 6 6 5 W L 5 4 8 =.kXGXSXSXSX",
"SXSXSXSXSXSXSXGXp.v v h x x x l K :.l x x l z z z n n m m n >.A m m n n n n n n z l l h b J 5 5 5 2 2 2 1 W u 1 1 3 %.jXGXSXSXSX",
"SXSXSXSXSXSXSXGXp.k v g h k h h k ;.k h k h l l z z n n n n -.A n n n n n n n n z z l h J c 5 5 2 1 * * & d 9 & & = ) zXGXSXSXSX",
"SXSXSXSXSXSXSXGX>X6 v 6 6 6 6 0 6 I J g h h h l z z n n n n R T N n n n n n n n n z l h K j 5 5 4 4 * & & i $ # # % ) NXDXSXSXSX",
"SXSXSXSXSXSXSXGX3X1 v 2 2 4 w w 5 0 P 6 6 h h l z z n n n n R Q N m n n n n n n n z l k K 6 6 8 q 4 * & ; y o o X O 9.DXSXSXSXSX",
"SXSXSXSXSXSXSXSXBX> j 3 3 9 q 1 1 2 H 0 6 h h l z z n n n n R R n m m n n n n n n z l b c 6 w w 4 1 * & q : o o   o !.GXSXSXSXSX",
"SXSXSXSXSXSXSXSXGXq.* 4 : , & * 1 1 8 J 6 g h l z z n n n N D T n A A n n n n n n z l K g j w 5 2 1 * & y % o X X - hXGXSXSXSXSX",
"SXSXSXSXSXSXSXSXGXhXo 2 $ $ & & * 2 2 0 c g h h x A z n n n N R  .N.B. .A n n n n z v k h g 6 5 2 1 * 9 9 # # X X 9.GXSXSXSXSXSX",
"SXSXSXSXSXSXSXSXSXGX8.# * # & & * 1 2 5 c j h k +.v.#.#.N n N Z.R.Z.Z.R.N.n n N  .| @.c h g 6 5 2 1 * q $ # o X O yXGXSXSXSXSXSX",
"SXSXSXSXSXSXSXSXSXGXzX+ * & $ & * 1 2 5 5 j h +.Z.b.P.P.N.Y b.U.b.Y.U.b.I.c.Y m.Z.B.c.v.c 6 5 2 2 1 9 ; $ # o X w.GXSXSXSXSXSXSX",
"SXSXSXSXSXSXSXSXSXSXGX:XX 3 & & * 1 2 0 F F j v.#.m.b.c.B.b.5.n.N.n.n.B.n.@.v.n.5.b.#.$.' 7 P J 8 3 9 & $ % X s CXDXSXSXSXSXSXSX",
"SXSXSXSXSXSXSXSXSXSXSXGXe.o 3 * * 1 8 ' +.#.[ ....4.4.n.c.c.b.m.m.S.S.n.m.v.4.4.c.<...] ] ] | ' F 3 & & $ o - jXGXSXSXSXSXSXSXSX",
"SXSXSXSXSXSXSXSXSXSXSXSXGXw.o * * * 0 | ] { X.{ 4.c.N.V.A.Z.Y.Z.Z.V.V.V.Z.P.V.N.N.b.5.[ ' ` I I K * & & # - 3XGXSXSXSXSXSXSXSXSX",
"SXSXSXSXSXSXSXSXSXSXSXSXSXGXe.# & 3 8 I ` [ ..c.b.$.#.+.+.+.] @.G | [ ] | ] +.' ' X...$.+.] L P J 4 3 # , jXGXSXSXSXSXSXSXSXSXSX",
"SXSXSXSXSXSXSXSXSXSXSXSXSXSXGX:X9 F P H ` ..{ ` P c *.<.] ] 4.4.R +.c.' +.@.1.F [ I F F H ' ' H H K 7 9.NXGXSXSXSXSXSXSXSXSXSXSX",
"SXSXSXSXSXSXSXSXSXSXSXSXSXSXSXGXzXy.F P +.u u H <.` ` <.[ ' c.4.c.4.c.| ....{ ` X.{ ` ` H 4 H ' c c >XDXFXSXSXSXSXSXSXSXSXSXSXSX",
"SXSXSXSXSXSXSXSXSXSXSXSXSXSXSXSXFXDX5X2.U t ` ` { L { o.o.o.<.........1...1.o.c.{ P ` t L u 3 I u.kXGXSXSXSXSXSXSXSXSXSXSXSXSXSX",
"SXSXSXSXSXSXSXSXSXSXSXSXSXSXSXSXSXSXGXSX5Xx.} u t X.c.L y.c.d.s.j.j.s.[./.O.y.%.1.1.0 ` t t p.lXGXGXSXSXSXSXSXSXSXSXSXSXSXSXSXSX",
"SXSXSXSXSXSXSXSXSXSXSXSXSXSXSXSXSXSXSXSXGXHXiX[.=.B.} <XvXT.D.f.D.k.h.%X Xh.aX$X} d.t 3.[.lXGXGXSXSXSXSXSXSXSXSXSXSXSXSXSXSXSXSX",
"SXSXSXSXSXSXSXSXSXSXSXSXSXSXSXSXSXSXSXSXSXSXGXGXZXcX*XeXcXY.k.f.k.k.g.%X`.g.eXtXI.0XcXHXGXFXSXSXSXSXSXSXSXSXSXSXSXSXSXSXSXSXSXSX",
"SXSXSXSXSXSXSXSXSXSXSXSXSXSXSXSXSXSXSXSXSXSXSXSXSXGX8X8XvXT.D.f.D.k.g.%X Xh.aX&X_.GXFXSXSXSXSXSXSXSXSXSXSXSXSXSXSXSXSXSXSXSXSXSX",
"SXSXSXSXSXSXSXSXSXSXSXSXSXSXSXBXSXSXSXSXSXSXSXSXSXDX8XeXiXx.^ / / r r ( ( ^ 6X&X|.SXSXSXSXSXSXSXBXSXSXSXSXSXSXSXSXSXSXSXSXSXSXSX",
"SXSXSXSXSXSXSXSXSXSXSXSXSXSXBXSXSXSXSXSXSXSXSXSXSXDX7X'.s # a a < @ @ . @ < > Q.).SXSXSXSXSXSXBXSXSXSXSXSXSXSXSXSXSXSXSXSXSXSXSX",
"SXSXSXSXSXSXSXSXSXSXSXSXSXSXSXSXSXSXSXSXSXSXSXSXSXGX'.0.9.f d p ~ ~ ) ) r q q _ Q.SXSXSXSXSXBXSXSXSXSXSXSXSXSXSXSXSXSXSXSXSXSXSX",
"SXSXSXSXSXSXSXSXSXSXSXSXSXSXSXSXSXSXSXSXSXSXSXSXSXDXVX4Xu.<X.Xk.k.D.S.%XM.7X2.'.zXSXSXSXSXSXSXSXSXSXSXSXSXSXSXSXSXSXSXSXSXSXSXSX",
"SXSXSXSXSXSXSXSXSXSXSXSXSXSXSXSXSXSXSXSXSXSXSXSXSXSXDXFX7XdXOXj.f.f.M.[.M.rX XbXGXSXSXSXSXSXSXSXSXSXSXSXSXSXSXSXSXSXSXSXSXSXSXSX",
"SXSXSXSXSXSXSXSXSXSXSXSXSXSXSXSXSXSXSXSXSXSXSXSXSXSXSXDX7XsX.Xl.C.L._.*XM.eX).MXFXSXSXSXSXSXSXSXSXSXSXSXSXSXSXSXSXSXSXSXSXSXSXSX",
"SXSXSXSXSXSXSXSXSXSXSXSXSXSXSXSXSXSXSXSXSXSXSXSXSXSXSXFX8X-X+XwXpXqX=XXXE.@X|.bXFXSXSXSXSXSXSXSXSXSXSXSXSXSXSXSXSXSXSXSXSXSXSXSX",
"SXSXSXSXSXSXSXSXSXSXSXSXSXSXSXSXSXSXSXSXSXSXSXSXSXSXSXDXOXK.+XqXpXwX=XXXE.H.G.nXDXSXSXSXSXSXSXSXSXSXSXSXSXSXSXSXSXSXSXSXSXSXSXSX",
"SXSXSXSXSXSXSXSXSXSXSXSXSXSXSXSXSXSXSXSXSXSXSXSXSXSXSXDXXXJ.+XqXpXqX=XXXE.J.H.nXDXSXSXSXSXSXSXSXSXSXSXSXSXSXSXSXSXSXSXSXSXSXSXSX",
"SXSXSXSXSXSXSXSXSXSXSXSXSXSXSXSXSXSXSXSXSXSXSXSXSXSXSXDXXXH.+XqXpXwXOXoXE.H.G.nXDXSXSXSXSXSXSXSXSXSXSXSXSXSXSXSXSXSXSXSXSXSXSXSX",
"SXSXSXSXSXSXSXSXSXSXSXSXSXSXSXSXSXSXSXSXSXSXSXSXSXSXSXDXXXJ.+XtXvXpXwXOXT.H.J.AXDXSXSXSXSXSXSXSXSXSXSXSXSXSXSXSXSXSXSXSXSXSXSXSX",
"SXSXSXSXSXSXSXSXSXSXSXSXSXSXSXSXSXSXSXSXSXSXSXSXSXSXSXFX@XI.$XsXZXZXcX9X*XI.Y.AXDXSXSXSXSXSXSXSXSXSXSXSXSXSXSXSXSXSXSXSXSXSXSXSX",
"SXSXSXSXSXSXSXSXSXSXSXSXSXSXSXSXSXSXSXSXSXSXSXSXSXSXSXFX}.M.7XsXZXAXdX9X&X|.C.nXDXSXSXSXSXSXSXSXSXSXSXSXSXSXSXSXSXSXSXSXSXSXSXSX",
"SXSXSXSXSXSXSXSXSXSXSXSXSXSXSXSXSXSXSXSXSXSXSXSXSXSXSXFXMX$X$XuXZXAXdX9X*X XuXDXSXSXSXSXSXSXSXSXSXSXSXSXSXSXSXSXSXSXSXSXSXSXSXSX",
"SXSXSXSXSXSXSXSXSXSXSXSXSXSXSXSXSXSXSXSXSXSXSXSXSXSXSXSXFXSXCXCXSXHXnXbXbXSXFXSXSXSXSXSXSXSXSXSXSXSXSXSXSXSXSXSXSXSXSXSXSXSXSXSX",
"SXSXSXSXSXSXSXSXSXSXSXSXSXSXSXSXSXSXSXSXSXSXSXSXSXSXSXSXSXSXDXDXDXDXDXFXDXSXSXSXSXSXSXSXSXSXSXSXSXSXSXSXSXSXSXSXSXSXSXSXSXSXSXSX"
};
