/* XPM */
static char *_905ee1cdda74916d884ba67f82b6e5dS7Pdvhnnl0gMAvia[] = {
/* columns rows colors chars-per-pixel */
"64 64 222 2 ",
"   c #010201",
".  c #0A0B0C",
"X  c #07090B",
"o  c #0E0F12",
"O  c #121314",
"+  c #161719",
"@  c #1A1C1D",
"#  c #161815",
"$  c #10100F",
"%  c #1E201F",
"&  c #1D1E21",
"*  c #1E2022",
"=  c #222325",
"-  c #252629",
";  c #27282C",
":  c #2A2B2E",
">  c #2E2E32",
",  c #2F3033",
"<  c #313236",
"1  c #353539",
"2  c #36393D",
"3  c #393B3D",
"4  c #38292C",
"5  c #711315",
"6  c #493735",
"7  c #722B2E",
"8  c #5E1014",
"9  c #45413F",
"0  c #3C3D41",
"q  c #363A41",
"w  c #403E45",
"e  c #3E4145",
"r  c #3E4448",
"t  c #414246",
"y  c #44464B",
"u  c #45494E",
"i  c #4A4B4F",
"p  c #4D4143",
"a  c #4B4D52",
"s  c #454C51",
"d  c #574F53",
"f  c #4C5155",
"g  c #4E565B",
"h  c #53555A",
"j  c #535A5D",
"k  c #575758",
"l  c #594D4B",
"z  c #675B5A",
"x  c #60534C",
"c  c #5B5D63",
"v  c #565D62",
"b  c #4C5961",
"n  c #566164",
"m  c #5C6A6C",
"M  c #5E6166",
"N  c #4D6065",
"B  c #62666C",
"V  c #636B6E",
"C  c #6B6569",
"Z  c #636D72",
"A  c #696B72",
"S  c #6C7B7C",
"D  c #687578",
"F  c #737579",
"G  c #747A7D",
"H  c #7A7679",
"J  c #746E71",
"K  c #941213",
"L  c #A9221B",
"P  c #931D21",
"I  c #882326",
"U  c #982F28",
"Y  c #A92825",
"T  c #A83639",
"R  c #B53335",
"E  c #AC1615",
"W  c #C0141D",
"Q  c #CA3737",
"!  c #8C4A35",
"~  c #A84933",
"^  c #9F3C41",
"/  c #8A534D",
"(  c #AB5356",
")  c #AB474B",
"_  c #8E7457",
"`  c #AC6352",
"'  c #AD5D68",
"]  c #877175",
"[  c #AD7173",
"{  c #E25B5D",
"}  c #B49C79",
"|  c #B59A47",
" . c #CC8D7A",
".. c #777C83",
"X. c #847D83",
"o. c #AA7B81",
"O. c #B37A81",
"+. c #6C8283",
"@. c #748386",
"#. c #79878A",
"$. c #7C8E90",
"%. c #7B9191",
"&. c #83858A",
"*. c #86888A",
"=. c #878A91",
"-. c #869899",
";. c #92959B",
":. c #95989C",
">. c #97979A",
",. c #958A8F",
"<. c #A3959B",
"1. c #AF8E94",
"2. c #87A19E",
"3. c #B8A892",
"4. c #9A9DA2",
"5. c #989AA6",
"6. c #8C9DA0",
"7. c #A19FAB",
"8. c #B79FA6",
"9. c #8AA4A2",
"0. c #8BA8A8",
"q. c #9CA4A9",
"w. c #93ACAB",
"e. c #96A7A8",
"r. c #8EBAB5",
"t. c #8AB4B2",
"y. c #94B4B3",
"u. c #93BAB5",
"i. c #94BDBB",
"p. c #9BBDBA",
"a. c #9AB7B5",
"s. c #90B1AE",
"d. c #A3A3AD",
"f. c #A8A8AB",
"g. c #A5A6B1",
"h. c #A5A9B4",
"j. c #ABACB5",
"k. c #ACAEB9",
"l. c #A8A6B2",
"z. c #B8ADB4",
"x. c #ADB1B5",
"c. c #ADB1BB",
"v. c #A3B8B7",
"b. c #B3B4BD",
"n. c #B7B7BB",
"m. c #B3A5AB",
"M. c #C4A6A9",
"N. c #C7B8BC",
"B. c #D1BE8E",
"V. c #96C1BD",
"C. c #9BC2BE",
"Z. c #A1C2BF",
"A. c #B4B6C1",
"S. c #B6BAC2",
"D. c #BABDC5",
"F. c #BBBDC8",
"G. c #BCB2C0",
"H. c #C6BCC3",
"J. c #9CC5C3",
"K. c #9EC9C5",
"L. c #9ECCC9",
"P. c #96C4C0",
"I. c #A2C5C2",
"U. c #A3CAC5",
"Y. c #A4CDCB",
"T. c #AACECA",
"R. c #ABC7C4",
"E. c #BDC0C7",
"W. c #BEC2C9",
"Q. c #B2CDCB",
"!. c #B5CDCB",
"~. c #A5D1CD",
"^. c #AAD2CD",
"/. c #B3D3CF",
"(. c #BAD2CF",
"). c #BEC5D1",
"_. c #A6D4D1",
"`. c #ACD5D2",
"'. c #ADD9D4",
"]. c #AEDBD9",
"[. c #B2D6D3",
"{. c #B3DAD5",
"}. c #BCD9D6",
"|. c #B4DCD9",
" X c #BBDED9",
".X c #BCD4D3",
"XX c #B6E0DB",
"oX c #BBE2DC",
"OX c #BBE3E0",
"+X c #C2C6CC",
"@X c #C5C9CE",
"#X c #CACACF",
"$X c #C6C4CC",
"%X c #C5C7D1",
"&X c #C6CBD2",
"*X c #CACDD4",
"=X c #CCCFD9",
"-X c #CDD1D6",
";X c #CED2D9",
":X c #C2DDDB",
">X c #CBDBDB",
",X c #C3D5D6",
"<X c #D0D2D6",
"1X c #D2D5DA",
"2X c #D5D9DE",
"3X c #D9DBDF",
"4X c #D2C8CD",
"5X c #C3E1DD",
"6X c #CAE1DC",
"7X c #D6DAE1",
"8X c #DADDE2",
"9X c #D8DBE5",
"0X c #CEDFE0",
"qX c #C6E7E3",
"wX c #D5E2E3",
"eX c #DEE2E5",
"rX c #D8E8E9",
"tX c #E1E3E6",
"yX c #E4E6E9",
"uX c #E7E9EA",
"iX c #E9E9EB",
"pX c #EBF1F2",
/* pixels */
"8X8X2X8X2X2X7X1X1X1X<X<X<X;X;X;X;X=X=X*X*X*X*X-X;X-X*X*X*X*X*X*X&X&X&X&X&X&X&X*X-X*X9X[ ~ ( ' k f.1X*X*X*Xb.<.] <X-XH.N.7X&Xf.H.",
"8X8XtX8X8X8X9XeXeX7X8X8X2X7X;X;X;X=X=X*X*X=X=X-X;X=X*X*X*X*X*X*X*X*X*X&X&X&X&X&X&X*X1XM.U 5 [ x.C &X&X*X*X<X2X,.$X1X( Y M.H ,.n.",
"8XyX:.S.+XD.&X*.*.W.;.:.f.;.8X=X=X;X=X*X*X*X*X*X*X*X*X*X*X*X*X*X&X&X&X+X@X@X@X&X&X&X&X-X7 / H F.*.>.<X+X&X$X2X>.f.<XT Q 7 f.rX1X",
"8XeX;.n.h M b.3 e f.M j n.=.7X=X=X;X=X*X*X*X*X*X*X*X*X*X*X&X&X&X&X&X+X+X+X+X+X@X&X@X&X*XH.9XN.} B.x #X@X+X&X*X@XJ D.' L Q { 4X>X",
"2XyX*.f.F G :.i h =.G J *.&.7X*X=X*X*X*X*X*X*X*X*X*X*X*X&X&X&X&X&X@X+X+XW.W.W.W.+X@X&X&XW.k.} | _ C z #X+X+X+X*Xb.z 6 ! Y W ' *X",
"8XeXD.&X&X2X*Xx.b.+X2X1Xj.S.7X;X<X;X-X*X*X*X*X*X*X*X*X&X&X&X&X&X&X@X+X+XW.W.W.W.W.+X+X@X*Xm.! _ z n.H k S.*X<X<XyX*.l @X1.( [ 1X",
"8X8X2X;X1X;X*X2X;X+X+X@X;X@X+X*XW.W.D.*X*X*X*X*X*X*X*X&X&X&X&X&X&X&X+X+XW.W.W.W.W.W.+X+X,X' L / H z f.H p J &.X.n.C 7.7X#XM.8.] ",
"3X8Xq.4.;.j.4.b.4.V ;.&.4.;.;.d.x.d.4.W.=X*X*X*X*X*X&X&X&X&X&X&X&X&X@X+X+X+XW.W.W.W.W.W.).[ ~ 3.).k.J ] z 7 U z 6 z =Xn.T K 5 8 ",
"8X8X@X@X&X&X@X&X&XS.+X+X+X&X+X+X*X+XD.&X*X*X*X*X*X*X&X&X&X&X&X&X&X&X@X+X+X+X+XW.D.D.D.D.W.+Xf.S.D.D.D.b.b.^ Q  .H 4 j.H.I K I R ",
"2X8X@X+X+X@XW.+X+X&X&X&X@XS.+X+X*X*X*X*X*X*X*X*X*X*X*X&X&X&X&X&X&X&X@X+X+X+X+XW.D.D.D.F.D.D.W.F.S.b.b.k.b.! T Y ) T 6 A.1.K P R ",
"2XeX=.G :.4.F =.=.;.:.;.:.A ;.#.&X*X*X*X*X*X*X*X*X*X*X&X&X&X&X&X&X&X&X@X+X+X+XW.W.D.D.D.D.S.S.A.b.b.k.j.k.] U 7 I { / 9 l.M.] 3.",
"2X2X@XW.*X&XW.+XW.@X+X+XD.b.W.+X*X*X*X*X*X*X*X*X*X*X*X*X*X*X&X&X&X&X&X@X+X+X+X+XW.W.F.D.S.S.b.b.k.k.j.j.g.j.o.7 8 Y ` x p C C >.",
"2X2X2X8X1X1X1X1X1X;X;X;X;X;X;X-X*X&X*X*X*X*X*X*X*X*X*X*X*X*X&X*X&X&X&X&X@X@X+X+XW.W.F.D.D.S.b.c.j.g.g.d.d.4.h.] 7 R ) k.k.X.d 4 ",
"1X1X1X1X1X<X;X;X-X*X*X*X*X*X*X&X&X&X*X*X*X&X&X*X*X*X&X*X*X*X*X*X*X&X&X&X&X&X+X+X+X+XW.E.D.D.b.c.j.d.d.d.7.7.5.k.1.Y T <.H X.,.8 ",
"1X1X1X1X1X<X;X;X-X-X*X*X*X*X*X*X*X*X*X&X&X&X&X&X&X&X&X&X%X&X&X%X&X&X&X&X&X&X&X&X@X@X+XW.W.D.A.c.j.d.d.d.d.7.g.' K U ~ P [ D.z.7 ",
"1X1X1X1X<X<X;X;X*X*X*X*X*X*X*X*X*X*X*X&X&X+X&X+X&X&X&X*X*X+X&X&X+X+X+X+X&X&X&X&X&X&X@X+XW.W.D.b.k.l.g.d.d.d.j.o.L ~ ` K O.c.n./ ",
"1X1X1X1X1X<X;X;X*X*X*X*X*X*X*X*X*X&X%X&X@X-X-X-XwX(.!.5X}.Q.:X}.!.>X>X@X+X+X+X&X&X&X&X@X@X+X+XD.b.k.l.g.g.l.c.o.E Y Y K 1.c.m.7 ",
"1X1X1X1X<X<X;X;X*X*X*X*X*X*X*X*X%X&X>X(.}.5XU.^.|.K.C.XX^.K.'.U.V.XX{.I.}.:X,X+X%X%X&X&X&X&X+XW.D.b.k.j.j.k.b.8.( [ T P <.j.b.z.",
"1X1X1X1X1X<X;X;X*X*X*X*X*X&X+X-X&X}.oXV.C.].Y.C.{.~.C.XX`.J.'.U.J.{.^.J.'.{.I.}.,X&X+X&X*X&X&X@X+XD.b.b.b.A.S.W.&X&X8.m.k.j.b.@X",
"1X1X1X1X;X>X;X-X*X*X*X&X&X&X>XqXI.i.{.Y.u.'.~.V.'.~.P.{.`.V.'.U.U.{.J.U.|.^.V.'.'./.,X-X+X&X*X&X@X+XD.D.S.D.+X$X#X#X&XF.b.b.D.+X",
"1X1X1X1X;X>X;X;X=X*X*X&XwXQ.K.{.^.r.Y.'.r.K.'.V.~.Y.P.{.^.V.'.U.^.|.V.`.|.J.Y.{.`.P.`.}.,X@X&X*X&X&X+XF.+X+X&X<X1X1X*X+X+X+X*X<X",
"1X1X1X1X1X1X;X;X;X*X&X,XqX`.u.^.oXV.i.XXC.V.{.P.L.~.i.|.Y.P.~.J.`.{.J.{.'.J.`.{.Y.Y.`.^.^.,X>X&X*X*X&X+X+X&X<X3X3X3X1X<X<X1X3X8X",
"1X1X1X1X1X1X>X>X*X9X}.V.^.XXU.V.oX~.t.].~.r.{.K.P.`.i.'.~.J.`.J.[.Y.U.{.Y.Y.'.`.J.'.`.^.Y.^.[.>X+X-X*X&X*X<X1X3X8X8X8X3X8X8XtXtX",
"1X1X1X1X1X1X>X-X>X5XoXY.u.|.XXi.Y.XXV.K.`.r.`.~.i.].i._.~.P.`.P.'.Y.L.`.Y.`.{.Y.^.`.[.T.~.Y.[./.>X-X<X<X1X1X8X8XtXtXtXtXtXtXtXtX",
"2X2X2X1X1X1X<XrXT.J.oXXXJ.C.oX~.u.OX'.t.Y.V.Y.'.i.].i.~.~.V.~.V.'.I.L._.Y.{.'.K.'.[.,XqXU.`.^.Y.^.>X<X1X2X8X8XtXtXtXtXtXtXtXtXyX",
"7X2X2X2X2X<XwXqXoXp.U.oX|.u.U.oXV.Y.XXr.P.Y.V.'.V._.i.~.Y.P.Y.P.`.i.`.Y.Y.XXY.Y.{.[.pX6X~.~.~.~.~.{.>X1X8X8XeXtXtXtXyXyXyXyXyXtX",
"8X8X2X2X2X>XR.`.oXoXp.^.oX{.u.^.'.i.|.Y.t.~.i.'.J.L.J.L.~.J.Y.K._.P.'.P.`.`.P.[.[.wXuX:XU.Y.^.^.`.U./.wX3XeXeXtXtXyXyXyXyXyXyXyX",
"8X8X8X1XrXqX^.i.^.oXoXC.T.qXT.u.|.J.V.OXr.L.P.~.Y.P.Y.L.~.K.Y.Y.J.K.`.P.{.P.Y.{.J.U.Y.Y.Y.~.`.`.U.`.C.s.wX2XtXtXyXyXyXyXyXyXyXyX",
"8X8X8XwX}.5XqX{.p.U.OXoXC.^.qXC.J.|.u.{.T.i.Y.J.`.P.Y.J.Y.L.L.L.J.Y.J.Y.`.P.'.J.V.^.^.Y.`.`.`.J.Y.'.p.0.:XyXtXyXyXyXyXyXyXyXyXyX",
"8X8X1X(.|.[..XqX5XI.T.oXoXp.^.oXV.~.`.i. Xu.{.J.`.P.K.J.K.J.J.Y.P.Y.J.'.P.Y.Y.P.Y.Y.I.`.'.`.J.Y.`.`.i.p.C.h.<XyXyXyXyXyXyXyXyXyX",
"8X8X9XW.v.}.{./.qXqXU.C.oX|.i.{.|.r.'.P.Y.Y.Y.U.~.P.J.J.K.J.i.K.J.Y.Y.`.P.T.i.Y.^.P.^.'.P.V.Y.`.T.i.u.^.S 1 x.tXyXyXuXyXuXyXyXyX",
"8X8X8XeX<Xx.R. X|.|.qXT.p.|. XV.`.^.i.'.i.{.I.Y.K.P.Y.Y.K.J.P.J.I.I.Y.Y.^.J.P.Y.J.`.{.V.V.~.^.J.Y.s.y.w.V -..XtXyXuXuXiXiXyXyXyX",
"8X8XeX8XeX8XW.h.Q.oX|.qX^.p.{.|.u.|.J.J.Y.^.T.Y.^.T.V.p.y.y.p.U.^.U.Y.Y.~.P.Y.P.`.'.i.J.`.Y.i.U.u.9.v.m @.-.@.>XyXyXiXiXuXuXuXyX",
"8XeXeXeXeX8XeX<Xx.h.:XoX X|.C.U.[.V. XV.U.^.oXa.%.m g h f h n D %.I.^.`.V.^.K.^.^.i.J.`.Y.P.Y.{.y.n D n @.$.#.#.#XiXuXiXuXuXuXuX",
"eXeXeXeXeXeX8X8XeX+Xd.v. XoX{.V.Y.'.U.{.J.I.+.y e y u a a h h d a j $.p.U.K.J.P.P.Y.a.u.J.'.'.U.+.0 q w.w.Q.R.f n.iXuXiXuXyXyXuX",
"eXeXeXeXeXeXeXeX8XeX3Xx.e.Q.oXoXJ.U.[.[.y.s w y y u y i i a f d j h a n 0.'.J.N p.0.s.].|.Y.0.#.s a -.$.Z y.C.j 2.tXyXuXuXyXyXyX",
"eXtXtXyXtXeXeXeXeX8X8XeX&Xq.a. XqX^.^.0.e t a y 0 0 0 t t y y i i f h y g -.9.%.b y.I.0.-.y.Y.w.h e.U.p.@.n j @.{.wXtXuXiXyXyXyX",
"tXtXyXyXyXtXeXeXeXeX8X3XeX8XD.e.v.rXa.e i y 0 3 2 3 3 3 3 0 3 0 t y y h s u -.@.#.Z a %.p.^.I.a w.[.Z.+.h @.v.[.U.>XtXiXyXyXyXyX",
"tXyXyXyXyXyXtXtXtXeXeX8X8X3XeX<Xf.v.2 : a 0 < > < 1 2 3 3 1 < < 1 1 e y a y u -.#.%.G S K.y.0 ..v.Z v 9.Z.e.9.I.U.5XyXyXyXyXyXyX",
"tXyXyXyXyXyXyXtXtXeXeX8XeXeX8X8X8X+X&.1 : 1 , : > 3 0 0 2 1 < > : : < 3 y f 2 S I.+. X9.0.D a j v %.T.|.|.a.S v.{.oXeXtXyXyXyXyX",
"yXyXyXyXyXyXyXtXtXeXeXeXeXeX8X8X3X3XeX@XB + @ : : 1 0 0 1 < : ; - - ; < 0 y u f T.S -.e.s r Z e.w.v.`.{.[.qX-.a v.T.2XtXyXtXtXtX",
"yXyXyXyXyXyXyXyXtXeXeXeXeXeX8X8X8X3X1X2X8X>.- O : < 3 0 1 > - = = = = : 1 t i t V m a 0 S G v...a 6.U.U.J.T.a.j #.^.2XtXtXtXtXtX",
"yXuXyXyXyXyXyXyXtXeXeXeXeXeX8X8X8X8X2X1X1X2XS.a O ; 1 3 < - * = = = = ; < t a y V e.w.a.$.D a.@.m %.^.V.V.U.U.V.2.U.:X8XtXtXtXtX",
"yXuXyXyXyXyXyXyXtXeXeXeXeXeX8X8X8X8X2X1X1X<X1X-X..; ; < = & & @ @ * = - < 0 y e v m 2.0.f T.^.C.T.$.#.[.'.[.[.{.oXp.}.2X8XtXtXtX",
"yXyXyXyXyXyXyXyXyXeXeXeXeXeX8X8X8X2X1X1X1X-X*X&X1XG   = 3 $ + @ @ * = = : 1 t y r w.5XS -.T.Z.C.I.T.-.0.U.I.U.U.U.U.(.2X8XtXtXtX",
"yXyXyXyXyXyXyXyXtXeXeXeXeX8X8X3X2X1X<X-X&X&X&X+XW.&.. # %   . . . O + & : 1 3 3 h R.m p.{.^.`.^.[.^.{.^.`.[.^.^.T.^.5X2X8XtXtXtX",
"yXyXyXyXyXyXyXyXtXeXeX8XeX8X2XeXtXeX8X8X8X1X&XW.c.q.< . O . 3 M a 3 : - > 0 a y m v h Z.p.a.a.i.p.C.p.I.^.[.[.{.[. X5X2X1X8X8X8X",
"yXyXyXyXyXyXyXtXtXeXeX8X8XyXtXS.=.B j c F :.W.&XS.j.;.c i c =.5.5.5.;.=...B j y y y S 9.a.I.R.T.U.I.p.p.a.y.a.p.Z.U.[.>X<X3X8X8X",
"tXtXyXyXyXyXtXtXeXeX8XeXiXx.a @ . . X       - =.%X+Xb.S.c.d.g.S.c.c.c.c.c.h.4.=.A h 2 > < a Z &.e.R.(. X X|.{.`.T.T.:X>X-X3X3X3X",
"tXtXtXtXyXyXtXeXeX8XiX2XV o . O + . o ; < - * X 2 ;.*XD.S.q.b.F.D.W.W.W.D.S.A.c.k.d.5.&.Z a < > < t c G =.e.v.Q.,X:XrX1X*X3X3X3X",
"tXtXtXtXtXtXtXeXtXpXj.> X O + . o f ;.n.W.F.b.#.* @ j d.g.;.D.W.+X+X+X+X+X+X+XW.W.D.A.b.k.g.5.#.m u < = 1 j C F H :.f.n.&X1X2X2X",
"tXtXeXeXeXeXeXyX*XA o . + + . & 4.1X1X>X;X-X*X*XS.#.@ a #.S.+X+X@X@X@X@X@X@X@X@X@X@X+X+XW.D.S.b.c.g.5.&.B i 0 2 * = : &.*X#X1X1X",
"eXeXeXeXeXeXeXyXi   + + + . = n.8X-X-X;X;X*X*X&X*X%XS.b.&X&X@X@X&X@X@X@X&X&X&X&X&X&X&X&X&X&X+X+XW.W.S.S.c.h.5...V h 3 :.*X@X-X<X",
"eXeXeXeXeX8XeX2Xe $ + + . . x.wX-X1X-X-X-X-X*X&X*X*X*X-X&X&X&X&X@X@X@X@X&X&X&X&X&X&X&X&X&X&X@X&X&X&X@X@X+XW.D.S.S.+X2X-X&X&X*X-X",
"8X8XeXeX8X8X8X1Xy . + O   ..yX-X1X<X-X-X-X*X*X*X*X&X&X&X@X@X+X+X@X@X@X@X+X@X@X&X&X&X&X&X&X&X&X&X&X&X&X&X&X@X@X@X@X&X&X*X*X&X&X*X",
"8X8X8X8X8X8X8X8Xc . O   1 7X1X<X<X-X-X-X*X*X*X*X&X&X&X&X@X@X+X+X+X+X+X+X+X+X+X+X@X@X@X@X@X@X+X+X@X&X&X@X@X@X@X@X@X&X&X*X*X*X*X*X",
"8X8X8X8X8X8X3X8Xf.O O   >.eX-X-X-X-X&X*X*X*X&X&X&X&X&X@X+X+X+X+X+X+X+X+X+X+X+X+X@X@X+X+X@X@X+X+X+X+X+X@X@X@X@X@X@X&X&X&X&X&X&X&X",
"2X2X2X2X2X2X1X2X1Xe   , 1X;X-X-X*X&X*X*X*X&X&X&X&X&X@X+X+X+X+X+X+X+X+X+X+X+X@X@X+X@X+X+X+X+X+X+X+X+X+X+X+X@X@X@X@X@X@X@X@X@X@X@X",
"1X1X1X1X2X2X1X1X3X+Xc &.8X*X-X*X*X&X*X*X&X&X&X&X&X@X+X+X+X+X+X+X+X+X+X+X+X+X+X+X+X+X+X+X+X+X+X+X+X+X+X+X+X+X+X+X+X+X+X@X@X+X+X+X",
"1X1X1X1X1X1X1X1X<X1X8X<X<X*X*X*X*X*X&X&X&X&X@X+X+X+X+X+X+XW.W.W.W.W.W.W.W.W.W.W.W.W.W.W.W.W.W.W.W.+X+X+X+X+X+X+X+X+X+X+X+X+X+X+X",
"-X-X<X<X<X-X-X-X-X*X*X*X*X*X*X*X*X&X&X&X&X@X@X+X+X+X+X+XW.W.W.W.W.W.W.W.W.W.W.W.W.W.W.W.W.W.W.W.W.W.W.W.W.W.+X+X+X+X+X+X+X+X+X+X",
"-X-X-X-X-X-X*X&X*X*X*X*X&X&X&X&X&X&X&X@X+X+X+X+X+X+XW.W.W.D.D.D.D.D.W.W.W.W.W.W.W.W.D.D.W.W.W.W.W.W.W.W.W.W.W.W.+X+X+X+X+X+X+X+X",
"&X*X-X&X*X*X&X&X&X*X*X*X&X&X#X@X@X@X@X@X+X+X+X+X+XW.W.W.D.D.D.D.D.D.D.D.D.D.D.D.D.D.D.D.D.D.D.D.D.W.W.D.D.W.W.W.W.W.W.W.W.W.W.W.",
"&X&X&X&X&X&X&X&X&X&X&X&X&X@X@X@X+X@X@X+X+X+X+XW.W.W.W.D.D.D.D.D.D.D.D.D.S.S.D.D.D.D.D.D.D.D.D.D.F.F.D.D.D.D.W.W.W.W.W.W.W.W.+X+X"
};
