/* XPM */
static char *_0f4ade6613342e0a4d02208ae9ccd0ftyTwgpYtLdGXFhmH[] = {
/* columns rows colors chars-per-pixel */
"64 64 237 2 ",
"   c #940000",
".  c #9D0101",
"X  c #9F0806",
"o  c #9E0C0A",
"O  c #A30101",
"+  c #A90102",
"@  c #A40906",
"#  c #A30609",
"$  c #A50C0A",
"%  c #A80C0B",
"&  c #A80807",
"*  c #A5130D",
"=  c #A9120F",
"-  c #A60F10",
";  c #A61412",
":  c #AA1414",
">  c #A51B15",
",  c #AA1B13",
"<  c #A41A1A",
"1  c #A91B1A",
"2  c #A31718",
"3  c #AB2216",
"4  c #A6251B",
"5  c #AB231B",
"6  c #AD2B1D",
"7  c #AD311E",
"8  c #B2351E",
"9  c #AB2B23",
"0  c #AB2D29",
"q  c #A92622",
"w  c #AE3324",
"e  c #AE362A",
"r  c #B23323",
"t  c #B43B24",
"y  c #B23629",
"u  c #B33C2A",
"i  c #AD3A35",
"p  c #AD3733",
"a  c #B33D32",
"s  c #B23E3A",
"d  c #B02E22",
"f  c #B5412C",
"g  c #B94D2F",
"h  c #B9462B",
"j  c #AE4539",
"k  c #B94B33",
"l  c #B44D3C",
"z  c #B44738",
"x  c #BC5434",
"c  c #BB543A",
"v  c #BD593C",
"b  c #B7523B",
"n  c #BB532F",
"m  c #C05C37",
"M  c #C2643C",
"N  c #C4693B",
"B  c #B64F49",
"V  c #B45444",
"C  c #BB5C44",
"Z  c #B65C4C",
"A  c #B95746",
"S  c #BB5B53",
"D  c #AF5544",
"F  c #BA6559",
"G  c #BE6D54",
"H  c #BD6461",
"J  c #BE6F64",
"K  c #BF7F73",
"L  c #BE746D",
"P  c #C16445",
"I  c #C46A44",
"U  c #C2664B",
"Y  c #C36B4C",
"T  c #C67443",
"R  c #C6724C",
"E  c #CA7E4B",
"W  c #CA7447",
"Q  c #C26957",
"!  c #C57554",
"~  c #C77959",
"^  c #C36763",
"/  c #C27B6B",
"(  c #C57665",
")  c #C27875",
"_  c #CE8B51",
"`  c #CC8458",
"'  c #D18C52",
"]  c #D28E5C",
"[  c #D18555",
"{  c #D29E53",
"}  c #D69A5D",
"|  c #D39457",
" . c #CF884D",
".. c #D3A156",
"X. c #D6A55A",
"o. c #D6A95D",
"O. c #D9AC5E",
"+. c #D9A55D",
"@. c #D9B05D",
"#. c #CB856A",
"$. c #CA8867",
"%. c #D28E63",
"&. c #D29264",
"*. c #D89E63",
"=. c #D59B69",
"-. c #C6837B",
";. c #CB8B7D",
":. c #CA8778",
">. c #CD9476",
",. c #D49871",
"<. c #CF986E",
"1. c #D5A264",
"2. c #DAAD63",
"3. c #DCAB6B",
"4. c #D9A566",
"5. c #DBB265",
"6. c #DCB966",
"7. c #DDB46A",
"8. c #DEBA6C",
"9. c #D6B165",
"0. c #DAA474",
"q. c #DBAE75",
"w. c #D7A67A",
"e. c #DDB374",
"r. c #DEBD74",
"t. c #DCB37C",
"y. c #DEB978",
"u. c #E1BD6D",
"i. c #E3BC71",
"p. c #E3BB7C",
"a. c #E0B578",
"s. c #DFC172",
"d. c #E1C16E",
"f. c #E3C474",
"g. c #E5C976",
"h. c #E4C57B",
"j. c #E6CB7C",
"k. c #E8CD7B",
"l. c #E9D37E",
"z. c #E6D17E",
"x. c #CD8F82",
"c. c #CD9589",
"v. c #D39A80",
"b. c #D29789",
"n. c #D19C93",
"m. c #DAAA83",
"M. c #D8A889",
"N. c #DCB281",
"B. c #DEBB89",
"V. c #D4A393",
"C. c #D6A897",
"Z. c #DEB893",
"A. c #E1B887",
"S. c #E2BC98",
"D. c #D8A9A5",
"F. c #DEBCAB",
"G. c #DBB4A5",
"H. c #D9B1B0",
"J. c #E2BBB7",
"K. c #E2B5A1",
"L. c #DFC285",
"P. c #E6CB82",
"I. c #E8CE83",
"U. c #E5C38C",
"Y. c #E6CC8B",
"T. c #EACD8B",
"R. c #E5C383",
"E. c #EAD484",
"W. c #EBD58C",
"Q. c #ECDB8C",
"!. c #E8D385",
"~. c #E5CB93",
"^. c #E6C995",
"/. c #EBD593",
"(. c #EDDB95",
"). c #ECDC9B",
"_. c #EAD499",
"`. c #F0DF91",
"'. c #EEE18F",
"]. c #EEE295",
"[. c #EEE29D",
"{. c #F1E295",
"}. c #F1E49B",
"|. c #F3EB9E",
" X c #DDC0AE",
".X c #E4CAA7",
"XX c #EBD6AB",
"oX c #ECD9A5",
"OX c #E2C4BC",
"+X c #E6CBBD",
"@X c #E9CEBC",
"#X c #E9D6B7",
"$X c #F1DFBB",
"%X c #EFE4A5",
"&X c #EEE3AB",
"*X c #EFE9A4",
"=X c #F1E5A3",
"-X c #F3EAA4",
";X c #F1E5AB",
":X c #F3EBAC",
">X c #F9F4AB",
",X c #EEE9B8",
"<X c #F4EDB3",
"1X c #F2EBBA",
"2X c #F0E6B4",
"3X c #EFF0BD",
"4X c #F6F1B5",
"5X c #F7F4BB",
"6X c #F8F8BB",
"7X c #E5C7C1",
"8X c #EBD5CB",
"9X c #EBDDC9",
"0X c #EFDCD4",
"qX c #EDE5C5",
"wX c #F3EDC3",
"eX c #F3E7C8",
"rX c #F5F3C3",
"tX c #F7F8C3",
"yX c #FAFCC5",
"uX c #F6F2CD",
"iX c #F9F9CA",
"pX c #EEE3D8",
"aX c #F3E8D6",
"sX c #F6F3D4",
"dX c #F6F4DC",
"fX c #F9F8D7",
"gX c #F2E9E3",
"hX c #F8F6E3",
"jX c #F9FAE4",
"kX c #F6F3EA",
"lX c #F9F6EC",
"zX c #FBFBEC",
"xX c #F7F7E6",
"cX c #FAF6F3",
"vX c #FCFDF4",
"bX c #FEFEFD",
"nX c #F2F5F4",
/* pixels */
"O O O O O O O O : ; O O O O O O O O O O O O O O O @ : @ O O O O O O O O O O O O O O O O : ; O O O O O O O O O O O O O O O @ : @ ",
"O O O O O O O @ O O @ O O O O O O O O O O O O O % : @ O O O O O O O O O O O O O O O O @ O O O O O O O O O O O O O O O O % : @ O ",
"O O O O O O @ O O O O @ O O O O O O O O O O O O $ = O O O @ O O O O O O O O O O O O @ + O O O @ O O O O O O O O O O O O $ : O O ",
"O O O O O @ O O O O O O @ O O O O O O O O O O O O O O O O O @ O O O O O O O O O O @ O O O O O O @ O O O O O O O O O O O O O O O ",
"O O O O @ O O O O O O O O @ O O O O O O O O @ O O O O O O O O @ O O O O O O O O @ O O O O O O O O @ O O O O O O O O @ O O O O O ",
"O O O O O O O O O O O O O O @ O O O O O O @ O O O O O O O O O O O O O O O O O O O O O O O O O O O O @ O O O O O O @ O O O O O O ",
"O % $ O O O O O O O O O O O O @ O O O O @ O O O O O O O O O O = 6 ; O O O % $ O O O O O O O O O O O O @ O O O O @ O O O O O O O ",
"% 1 $ O O O O O O O O O O O O O @ O O @ O O O O O O O O O O O @ * ` , O % 1 $ O O O O O O O O O O O O O O O O @ @ O O O O O O O ",
"1 $ O O O O O O O O O O O O O O O : 1 O O O O O @ O O O O O O O . 3.r O 5 $ O O O O O O O O O O O O O O O * 1 O O O O O O O O O ",
"@ O O O O O O O O O O O O O O O O ; 1 O O O O O $ c $ O O O . @ *.m.X 2 $ O O O 6 = . O O O O O O O O O O * : O O O O O O O O O ",
"O @ O O O O O O O O O O O O O O O . O @ O O O O . %.x . O . 8 U.XXq $ @ O @ . $ ! . y @ O O O O O O O O & O O @ O O O O O O O O ",
"O O @ O O O O O O O O O O . . 0 l a ; . O O O O @ p.k . @ T :X.X2 O ; O f 6 8 ] v 7 P @ O O O O O O O @ O O O O @ O O O O O O O ",
"O O O @ O O O O O O O O . w A.1XtX<X/.] 3 O @ . u a.@ ; } ].:.X O O . M L.S.oX#.:..X~ * O O O O O O @ O O O O O O @ O O O O O O ",
"O O O O @ O O O O O O . y ;X4X;X%X!.P.z.i.u . . [ m . 4.r.z . @ O $ C $XzXbXOXx.C.n.F * * . O O O @ O O O O O O O O @ O O O O O ",
"O O O O O @ O O O O O @ U.tXeXdXdX1Xg.j.d.u.r O ] @ M e.> . % @ @ w.uX/ OXlXn.lXbX8XF.aXqXM.w . @ O O O O O O O O O O @ O O O O ",
"O O O O O O @ O O O # f 4XhXbXbXbX@X7 ( $Xg.| 1 Y . *.f . @ O . 3 1X@Xc.G.-.V.cX;.D F.bXvXbXsXz . O O O O O O O O O O O @ O O O ",
"O O O O O O O @ O : - Q zXbXbXbXbXXX8 . i .Xf.v A . v k 6 ; 3 f K.lXG.C.bX-.+XvX@X;.C.vXhXkXvX9X4 O O O O O O O O O O O O O O O ",
"O O O O O O O O % q O z bXbXbXbXbX_.[ a . i (._ U $ O w c | 5.iXbX9XV @Xx.F zXV.G C.lXzXxXdXlXxXZ . O O O O O O O O O O O O % ; ",
"O O O O O O O @ : @ O X OXbXbXbXbXY.@ . O . l P.Y P 5 ; . 4.Q..XZ l v.qXM.#X@X( 9 ( dXlXkXjXjXbXS.. O O O O O O O O O O O O ; : ",
"O O O O O O - : @ O @ O 2 J.bXbXbXwX} t , @ . w C 5 u 3 : k ! 4   ( qXZ.V 0 2 . O   S lXlXzXdXzXqXw . O O O O O O O O O O @ O O ",
"O O O O O O $ * O O O @ O . H 7XkXbXXX4.v * % . O O . O O O . U M.eX2 . O . c.F . O o aXzXjXsXjX#Xz O O O O O O O O O O @ @ O O ",
"O O O O O O O O O O O O $ O . . ; 2 < e k f 3 , O O O O O O @ Y #X( @ O . a pX Xp X F vXlXjXsXiX^.0 O O O O O O O O O @ @ O O O ",
"O O O O @ O O O O O O O O $ O . ; ( J.v.I ` 4.i.~ O O O O O O O .   . . X i i J pX8XxXvXzXjXwX-X&.@ O O O O O O O O @ @ O O O O ",
"O O O @ O O O O O O O O O . q c.bX8XL n._.}.(.z.Y.$ O O O . @ r ~ n.F.7X9X0XaXaXlXbXzXjXjXfX%X}.x . $ O O O O O O O O O O O O O ",
"O O @ O O O O O O O @ O X -.cXbX-.F 0XbX)./.W.E.4.. O . * I 3.W.jXvXbXvXvXzXjXfXuXwXwX1XwX&X].p.* O O @ O O O % $ O O O O O O O ",
"O @ O O O O O O O + . 9 7XbXcXF ) gXbXgX).).W.Q.R . O f 4.E.j.oXuXrX<X<X:X%X=X=X=X=X=X:X[.].(.u . O O O @ O $ 1 $ O O O O O O O ",
": O O O O O O O O O p gXbXlXZ j s i nXlX;X:X/.I.6 . 6 c 3.g._.5X_.q.0.<.w.t.B.~.~.~.~.0.N./.f . O O O O O $ 1 $ O O O O O O O O ",
": O O O O O O O O ; pXbXbXS $ % . OXbXxX;X2X(.e.. O q ! E.j.<XU.I ,.J >.#.A A l l j ; X V $   . . O O O @ ; $ O O O O O O O O O ",
"O @ O O O O O @ . x.bXbXD.. O X H.bXbXsX2X;XQ.~ a . ! Q.j.!.<Xw ~ ! 4 6 4 G V B #.m.S.XX^.m.%.U y @ . # ; @ O @ O O O O O O O O ",
"O O @ O O O O O . 8XbXvXe . . D.bXbXvXjXsX[.W.4 ,.4 0.(.I.j.(.$.C C $.Z.wXiXS.M.#.~ ~ #.A.;X6X>X=XU.R ; X O O O @ O O O O O O O ",
"O O O @ O O O O . +XbX7X. . D.bXbXbXvXbXdX(.3.. U.R w.4X).I./.yXtXiXiXyX6X.Xw.>.>.#.U e . X C U.-X}.=Xp.t . O O O @ O O O O O O ",
"O O O O @ O O O . Z bX7X  D.bXbXbXgXpXbXuX'.M 2 *X0.~ |.W.%X).&X&X%X-X/.t.,.w.N._.6XyX6XoXY . X ` [.(.*XW.g . O O O @ O O O O O ",
"O O O O O @ O O O . B c.D.bXbXbXvXK gXbXsXW.3 ( |.A.4 e.Q.}.;X(.}.U.C 4 O . . . . w &.:X<XyXw.O . Y }.(.:XI.7 O O O O @ O O O O ",
"O O O O O O @ O O @ . F bXbXbXbXx.H bXbXzXt.j (.!.P.= * ! q.).=Xq.* . . . $ @ . . . . ! -X,XfX~ O . &.{.).<X} O O O O O @ O O O ",
"O O O O O O O @ O . p vXbXbXbXaXo 7XbXbXbX.X~.Q.!.R.* # ; =.].T., . $ ! B.^.^.w.! w . . A.<XuX~.$ O > /.W.).W.t . O O O O @ O % ",
"O O O O O O O O ; o G.bXbXbXbXQ 2 bXbXbXbXbXrX(.Q.4.% < ] |.=XR . $ w.6X5XtXtXtX6X2XA.b w.3XuX(.3 O . &.{.W.{.T . O O O O O % 1 ",
"O O O O O O O O % i cXbXbXbXaXX ^ bXbXbXbXvXsX).E.R . b Q.(./.3 . Y ].).}.R.p.W.*X:X5X5X,X,XrX/.* O . P {.I.}.| O O O O O @ : @ ",
"O O O O O O O $ . Q bXvXbXbXv.  D.bXvXbXvXzXuXW.h.d X q.W.[.q.. @ e.[.Y.g * * 6 M p.=X,XrX1X:X/.f . O c `.P.(.*.O O O O % 1 O O ",
"O O O O O O @ @ . b.bXlXvXzXc . pXbXvXvXzXzX2Xg.I X u W.Y.[.&.. 1 P.:Xf . O O O . . %.:XrX2X[.[.}.I . v ].P.Q.} O O O O $ : O O ",
"O O O O O @ O O . V.bXlXvXsX3 0 bXbXvXzXvXsXj. .@ . ! Q.P.].%.. , h._.; . O O . X C Y.).%X%X(.).%XT.. ! Q.j.E.' . O O O O O O O ",
"O O O O @ O O @ . :.bXlXvXwX@ ^ bXbXvXbXjXW._ * O . =.E.h.Q.=.O O *.Q.=.w 3 w P N.:X:XP.f.f.g.W.<X^.X q.E.h.E.I O O @ O O O O O ",
"O O O O O O O O . a vXlXbXfX> V.bXvXbXlXY.W $ O O @ q.z.h.I.R.* . h f.j.(./.}.-X=X/.P.d._ 7 2.f.>XP z Q.h.f.g.f . @ O O O O O O ",
"O % @ O O O O O O . V.bXlXvX/ +XbXvXbX&X{ O O O O $ y.g.j.h.W.v . @ x 5.6.h.h.r.8.6.+.M $ . 2.l.E w P.g.f.f.7.* O O O O O O O O ",
"; 1 $ O O O O O O O X #.oXiXzXxXlXbXzXh.E O O O O $ e.f.j.j.f.h.> O O r  .1.+...' M 3 . . v i.g w p.g.f.u.z.W O @ O O O O O O O ",
"1 $ O O O O O O O O O . * u ;.bXvXvXeX6.T O O O O O 4.g.u.i.8.f.3.> . # 1 , , = O . O O * f > b h.f.u.8.f.P.r O O O O O O O O O ",
"@ O O O O O O O O O O O O . H bXcXvXXXO.T O O O O . E u.O.2.8.5.8.7.x 2 . . . O O O . . @ u *.k.u.8.5.6.E.I $ O O O O O O O O O ",
"O O O O O O O O O O O O @ . b.bXlXvXXX@.T O O O O . x d.X.X.O.8.5.9.r.1.I u 4 , , 6 h R 3.g.d.5.2.o.7.k.] O O @ O O O O O O O O ",
"O O @ O O O O O O O O O O . b.bXlXvXXX6.E O O O O O * h.8.X...O.8.7.2.O.6.8.7.2.2.7.8.6.O.X...{ X.7.f.} $ O O O @ O O O O O O O ",
"O O O @ O O O O O O O O O . b.bXlXjXoXf.+.$ O O O O . P Q.7.X...X.O.2.O.X.X.o.o.X...{ { { { { 2.u.d.| * O O O O O @ O O O O O O ",
"O O O O @ O O O O O O O @ . ~ fXlX;X(.W.f.I * y O O O . ' k.8.2.......X.O.2.5.5.2.o.X.....X.7.8.u.E $ O O O O O O O @ O O O O O ",
"O O O O O @ O O O O O O @ . f -X2X(.Q.(.I.u.5.x . O O O $ _ f.8.5.o...............{ ..O.5.8.u.2.x O O O O O O O O O O @ O O O O ",
"O O O O O O @ O O O % @ O O @ a.[._./.%X).I.u.3 O O O O O @ M 2.d.u.8.8.7.5.2.2.5.8.f.f.f.2.E 3 . O O O O O O O O O O O @ O O O ",
"O O O O O O O @ O % 1 $ O O . t k.].[.(.P.f.M . O O O O @ O . 3 N | 2.7.f.f.f.f.f.i.5.| m 9 2 @ O O O O O O O O O O O O O @ O O ",
"O O O O O O O O % 5 $ O O O O . u 3.h.u.O.N @ O O O % ; O O O O . $ 6 h m N N M n t , @ O 1 $ O O O O O O O O O O O O O O O % ; ",
"O O O O O O O @ : @ O O O O O O . $ 6 8 , . O O O O : : O O O O O O O . O O O O O O O @ 1 @ O O O O O O O O O O O O O O O O ; 2 ",
"O O O O O O - : O O @ O O O O O O O O O O O O O O @ O O @ O O O O O O O O O O O O O = : O O @ O O O O O O O O O O O O O O @ O O ",
"O O O O O O $ = O O O @ O O O O O O O O O O O O @ O O O O @ O O O O O O O O O O O O $ = O O O @ O O O O O O O O O O O O @ O O O ",
"O O O O O O O O O O O O @ O O O O O O O O O O @ + O O O O O @ O O O O O O O O O O O O O O O O O @ O O O O O O O O O O @ O O O O ",
"O O O O @ O O O O O O O O @ O O O O O O O O @ @ O O O O O O O @ O O O O O O O O @ O O O O O O O O @ O O O O O O O O @ O O O O O ",
"O O O @ O O O O O O O O O O @ O O O O O O O O O O O O O O O O O @ O O O O O O @ O O O O O O O O O O @ O O O O O O O O O O O O O ",
"O O @ O O O O O O O O O O O O @ O O O % @ O O O O O O O O O O O O @ O O O O @ O O O O O O O O O O O O @ O O O % $ O O O O O O O ",
"O @ O O O O O O O O O O O O O O @ O % 1 $ O O O O O O O O O O O O O @ O O @ O O O O O O O O O O O O O O @ O $ 1 $ O O O O O O O ",
": O O O O O O O O O O O O O O O O $ 1 $ O O O O O O O O O O O O O O O : 1 O O O O O O O O O O O O O O O O $ < $ O O O O O O O O ",
": + + + + + + + + + + + + + + + & : & + + + + + + + + + + + + + + + + : 1 O + + + + + + + + + + + + + + & : % + + + + + + + + + "
};
