/* XPM */
static char *dea9120897a142a2e26196dab23281d9JV6zRfmtgtiZVWvz[] = {
/* columns rows colors chars-per-pixel */
"64 64 239 2 ",
"   c #6E562B",
".  c #765B2A",
"X  c #6B5835",
"o  c #735C33",
"O  c #765C36",
"+  c #614F32",
"@  c #7C612D",
"#  c #7C6434",
"$  c #7C653B",
"%  c #7E693C",
"&  c #786434",
"*  c #785E41",
"=  c #7D6943",
"-  c #796444",
";  c #766551",
":  c #85692B",
">  c #8D732E",
",  c #947E2E",
"<  c #96792D",
"1  c #826533",
"2  c #846C35",
"3  c #8A6D34",
"4  c #846B3C",
"5  c #856A3C",
"6  c #8C7335",
"7  c #85713D",
"8  c #8B743C",
"9  c #8B7538",
"0  c #93773C",
"q  c #937B3C",
"w  c #9A7E3B",
"e  c #947935",
"r  c #A07D23",
"t  c #846D43",
"y  c #896F44",
"u  c #867345",
"i  c #8B7443",
"p  c #8E7944",
"a  c #86734B",
"s  c #8C7A4A",
"d  c #8B774C",
"f  c #917742",
"g  c #947C43",
"h  c #9A7E43",
"j  c #937C4B",
"k  c #997E49",
"l  c #8C7B54",
"z  c #88765A",
"x  c #917D52",
"c  c #957E59",
"v  c #937F67",
"b  c #9C8333",
"n  c #9B833C",
"m  c #9B863A",
"M  c #9C832B",
"N  c #BB962A",
"B  c #A38B35",
"V  c #A38C3C",
"C  c #AB8D3D",
"Z  c #A38738",
"A  c #AB933D",
"S  c #AE993E",
"D  c #A7923A",
"F  c #B3983A",
"G  c #A98D31",
"H  c #B8A13F",
"J  c #C29C32",
"K  c #C09C2E",
"L  c #C5A33C",
"P  c #C9A83A",
"I  c #D1B33C",
"U  c #968144",
"Y  c #9B8344",
"T  c #96814B",
"R  c #9C844B",
"E  c #9E8A4B",
"W  c #9E8C46",
"Q  c #958253",
"!  c #9B8553",
"~  c #9F8954",
"^  c #95845D",
"/  c #9B845C",
"(  c #9B8A5B",
")  c #A18643",
"_  c #A38B43",
"`  c #A98D44",
"'  c #A0864B",
"]  c #A48C4B",
"[  c #AA8E4B",
"{  c #A88543",
"}  c #AC9443",
"|  c #AE9943",
" . c #A5924C",
".. c #AC944C",
"X. c #A79446",
"o. c #B29542",
"O. c #B39B44",
"+. c #B99C44",
"@. c #B39C4C",
"#. c #B89E49",
"$. c #B3964A",
"%. c #A48D53",
"&. c #A28E5C",
"*. c #A69252",
"=. c #AB9452",
"-. c #A5915B",
";. c #A9935A",
":. c #AD9A5C",
">. c #AD9855",
",. c #B39C53",
"<. c #B39B5D",
"1. c #B49956",
"2. c #B6A144",
"3. c #BCA443",
"4. c #BBA44C",
"5. c #BDA94D",
"6. c #B6A14D",
"7. c #BBA454",
"8. c #BDA953",
"9. c #BBA35B",
"0. c #B8A357",
"q. c #9A8967",
"w. c #9C8D72",
"e. c #9D916E",
"r. c #A18F60",
"t. c #AA9462",
"y. c #AC9963",
"u. c #A5956B",
"i. c #AD9A6C",
"p. c #A49060",
"a. c #B39D64",
"s. c #A79776",
"d. c #B39E73",
"f. c #BBA466",
"g. c #B6A367",
"h. c #B6A675",
"j. c #B6AA75",
"k. c #C09F47",
"l. c #CAAC43",
"z. c #C3AC4D",
"x. c #C6A848",
"c. c #C6B14D",
"v. c #CBB44E",
"b. c #D5B848",
"n. c #C3AC53",
"m. c #C3AC5B",
"M. c #C4AA5A",
"N. c #C6B252",
"B. c #CBB454",
"V. c #CDB955",
"C. c #C6B25B",
"Z. c #CAB45C",
"A. c #CEB95C",
"S. c #D2BB53",
"D. c #D2BD5D",
"F. c #D2B556",
"G. c #D0AE44",
"H. c #C3AC64",
"J. c #C4AC64",
"K. c #CBB363",
"L. c #CCB667",
"P. c #D3BC62",
"I. c #D4B965",
"U. c #C3AF77",
"Y. c #CAB978",
"T. c #DBC154",
"R. c #D6C35C",
"E. c #DCC55C",
"W. c #DDCA5D",
"Q. c #D8C555",
"!. c #E3CB59",
"~. c #D6C262",
"^. c #D9C563",
"/. c #DDCA63",
"(. c #DDC96A",
"). c #DBC974",
"_. c #E1CD64",
"`. c #E5CE6C",
"'. c #E6D365",
"]. c #E6D46B",
"[. c #EBDA6C",
"{. c #E8D76B",
"}. c #E4CB74",
"|. c #EAD573",
" X c #EBD873",
".X c #F3DC79",
"XX c #F2E173",
"oX c #A89A84",
"OX c #B7A887",
"+X c #B8AB93",
"@X c #B5AA96",
"#X c #C8B789",
"$X c #C8BA95",
"%X c #CAB799",
"&X c #C5BBA7",
"*X c #C8BEB4",
"=X c #CEC387",
"-X c #D7C986",
";X c #D5C899",
":X c #DFD492",
">X c #CCC39E",
",X c #D4C8A7",
"<X c #DCD3AC",
"1X c #D6CBB7",
"2X c #DCD3B9",
"3X c #CAC1AD",
"4X c #E3D8AC",
"5X c #E2D6B8",
"6X c #E5DAA4",
"7X c #D6CFC2",
"8X c #D9D3C7",
"9X c #DCDBD4",
"0X c #E5DCC7",
"qX c #E1DCD6",
"wX c #EAE4C8",
"eX c #E3E2DD",
"rX c #ECE7DE",
"tX c #ECE7D7",
"yX c #F2ECDB",
"uX c #F1EAD2",
"iX c #F4F2DC",
"pX c #E7E7E1",
"aX c #EAEAE4",
"sX c #EEEDEA",
"dX c #E8E7E2",
"fX c #F2EDE6",
"gX c #EFF0EB",
"hX c #F5F2E5",
"jX c #F2F2EE",
"kX c #F8F5ED",
"lX c #F5F5F3",
"zX c #F8F7F3",
"xX c #FAFAF5",
"cX c #FEFEFD",
"vX c white",
"bX c #FFFEFE",
"nX c #FDFDFD",
"mX c #FFFFFF",
"MX c #F8F7F6",
/* pixels */
"vXvXvXvXvXvXvXvXvXvXvXvXvXvXvXvXvXvXvXvXvXvXvXvXvXvXvXvXvXvXvXvXvXvXvXvXvXvXvXvXvXvXvXvXvXvXvXvXvXvXvXvXvXvXvXvXvXvXvXvXvXvXvXvX",
"vXvXvXvXvXvXvXvXvXvXvXvXvXvXvXvXvXvXvXvXvXvXvXvXvXvXvXvXvXvXvXvXvXvXvXvXvXvXvXvXvXvXvXvXvXvXvXvXvXvXvXvXvXvXvXvXvXvXvXvXvXvXvXvX",
"vXvXvXvXvXvXvXvXvXvXvXvXvXvXvXvXvXvXvXvXvXvXvXvXvXvXvXvXvXvXvXvXvXvXvXvXvXvXvXvXvXvXvXvXvXvXvXvXvXvXvXvXvXvXvXvXvXvXvXvXvXvXvXvX",
"vXvXvXvXvXvXvXvXvXvXvXvXvXvXvXvXvXvXvXvXvXvXvXvXvXvXvXvXvXvXvXvXvXvXvXvXvXvXvXvXvXvXvXvXvXvXvXvXvXvXvXvXvXvXvXvXvXvXvXvXvXvXvXvX",
"vXvXvXvXvXvXvXvXvXvXvXvXvXvXvXvXvXvXvXvXvXvXvXvXvXvXvXvXvXvXvXvXvXvXvXvXvXvXvXvXvXvXvXvXvXvXvXvXvXvXvXvXvXvXvXvXvXvXvXvXvXvXvXvX",
"vXvXvXvXvXvXvXvXvXvXvXvXvXvXvXvXvXvXvXvXvXvXvXvXvXvXvXvXvXvXvXvXvXvXvXvXvXvXvXvXvXvXvXvXvXvXvXvXvXvXvXvXvXvXvXvXvXvXvXvXvXvXvXvX",
"vXvXvXvXvXvXvXvXvXvXvXvXvXvXvXvXvXvXvXvXvXvXvXvXvXvXvXvXvXvXvXvXvXvXvXvXvXvXvXvXvXvXvXvXvXvXvXvXvXvXvXvXvXvXvXvXvXvXvXvXvXvXvXvX",
"vXvXvXvXvXvXvXvXvXvXvXvXvXvXvXvXvXvXvXvXvXvXvXvXvXvXvXvXvXvXvXvXvXvXvXvXvXvXvXvXvXvXvXvXvXvXvXvXvXvXvXvXvXvXvXvXvXvXvXvXvXvXvXvX",
"vXvXvXvXvXvXvXvXvXvXvXvXvXvXvXvXvXvXvXvXvXvXvXvXvXvXvXvXvXvXvXvXvXvXvXvXvXvXvXvXvXvXvXvXvXvXvXvXnXzXkXhXxXvXvXvXvXvXvXvXvXvXvXvX",
"vXvXvXvXvXvXvXvXvXvXvXvXvXvXvXvXvXvXvXvXvXvXvXvXvXvXvXvXvXvXvXvXvXvXvXvXvXvXvXvXvXvXvXzXuX4X:X-X).(.^.P.L.Y.;XwXkXvXvXvXvXvXvXvX",
"vXvXvXvXvXvXvXvXvXvXvXvXvXvXvXvXvXvXvXvXvXvXvXvXvXvXvXvXvXvXvXvXvXvXvXvXvXvXvXvXhXwX:X).E.W.!.!.W.W._._.W.Q.v.z.8.;XMXvXvXvXvXvX",
"vXvXvXvXvXvXvXvXvXvXvXvXvXvXvXvXvXvXvXvXvXvXvXvXvXvXvXvXvXvXvXvXvXvXvXvXnXtX4X-X(.!.'.{.{.{.'.W.W.R.R.R.R././.A.3.G g.rXvXvXvXvX",
"vXvXvXvXvXvXvXvXvXvXvXvXvXvXvXvXvXvXvXvXvXvXvXvXvXvXvXvXvXnXvXvXvXvXfX<XY.D.W.'.[.XXXX{.{.'./.R.R.D.D.V.c.c.D.^.Z.8.F @.2XvXvXvX",
"vXvXvXvXvXvXvXvXvXvXvXvXvXvXvXvXvXvXvXvXvXvXvXvXvXvXnXvXvXvXnXaX<XY.C.v.E.{. X{.{.{.'.'._._./.~.D.D.A.N.5.5.z.B.D.D.Z.z.n.uXvXvX",
"vXvXvXvXvXvXvXvXvXvXvXvXvXvXvXvXvXvXvXvXvXvXvXvXvXvXvXxXtX,XU.0.@.n.S._. X[.[.].].'.'./.W././.^.D.D.B.2.2.4.4.z.n.V.V.B.F.-XvXvX",
"vXvXvXvXvXvXvXvXvXvXvXvXvXvXvXvXvXvXvXvXvXvXvXvXxXwX,Xj.a.*. .9.;./ ;X;Xf.L.|.|.].]._.W.W.E.^.A.B.B.4.S S 2.4.5.n.N.F.v.V.D.hXvX",
"vXvXvXvXvXvXvXvXvXvXvXvXvXvXvXvXvXvXvXvXvXhX5X=X=X#Xj.q.x j ! *.@.p v z *.f g <.K.P.V.S.S.S.F.x.4.4.| A O.4.4.8.n.z.V.b.S.S.uXvX",
"vXvXvXvXvXvXvXvXvXvXvXvXvXvXvXvXvXxXtX,Xj.9.J.;XOXOXy.j ! >.E 7 & O X & 4 $ $ $ u g } 5.3.c.v.n.6.| A | 4.8.8.8.5.z.v.S.T.b.tXvX",
"vXvXvXvXvXvXvXvXvXvXvXvXvXnXrX2X$XH.0.@.f.4XyX*Xu 0  .n 4 o o 4 % # & o   $ ^ s i $ R | G A #.A #.A | 6.8.5.4.n.M.N.V.T.T.B.hXvX",
"vXvXvXvXvXxXxXMXMXlXfX<Xj.:.W | 2.2.0.%X0X2Xw.a s 4 Y U # 9 3 2 q Y m m U Y u u T 7 p ] A G C e n } 6.m.C.C.C.A.A.V.S.E.b.Y.vXvX",
"vXvXvXxXzXhXhXfXwX>Xa.X.X.@.8.O.V ,.$X1XOXs t u & i $ 8 3 2 Y @.@.7.4.O._ Y o % 8 8 9 U V G G ` q e ..7.C.A.A.~.D.D.T.T.l.2XvXnX",
"vXzX5X<XuXkXyXuX0X;Xg.0.0.6.Z q =.OX%X-.p i y k 8 i ~ 0 2 ] ..)  .) _ ` 9 q 2 p q ' ] _ m b M A Y @ Y @.n.A.Z.A.~.R.T.b.C.jXvXvX",
"vXwXO.0.$XqX0X1X5X5X#X:. .m 6 R d.OX;.X.0.%.T E g g U g Y g q # p 8 k h n # 7 n ` @.@.| } V B A A _ 9 ,.7.C.C.A.D.S.!.b.,XvXvXvX",
"vXhXC.S :.+X7X2X1X2X5X$X-.2 g %.&.y.0.8.m.} 8 2 f g 8 i 8 g n m 2 0 ] 6 ..3 n A } | | | } | | O.} b : Y 7.0.7.n.N.S.!.C.sXvXvXvX",
"vXnX$XN.A W +XqX2X,X,X<Xq.$ g _ ;.<.m.m.M.#.V @.@.X.X.@.] 0.n.4.7.m.8.4.} n A A } | A V V V } ` } V 6 3 _  .} 5.v.!.F.3XvXvXvXvX",
"vXvXqXh.B.| _ OX1X3X#Xh.a o Y ) _ [ ..@.+.#.4.4.z.N.N.B.~.D.A.P.D.B.n.4.4.2.S | | | A B b > , _ 3 ) < @ q [ V z.S.!.a.sXvXvXvXvX",
"vXvXvX3Xa.C.n.|  .OX$X*.2   8 ) ) _ ) @.#.4.n.n.B.A.R.~.~.^.^.^.D.V.z.4.4.4.O.+.O.A V b > : : ` 0 q : . ) V | S.T.>.8XvXvXvXvXvX",
"vXvXvXMX@X%.8.~.N.D *.h.R . # _ ] w _ ..,.n.B.A.P.^.(.|.|.|.].`.~.F.n.z.x.4.+.O.o.A B , > V 3 1 0 3 o 6 ` V z.Q...&XvXvXvXvXvXvX",
"vXvXvXvX3Xu.! ,.A.^.O.X.:.R @ : k w ` [ @.n.M.A.P.(.`..X.X.X.X`.R.V.n.4.6.O.O.o.O.A B V @ Y 0 1 1 . # n A c.V.*.s.qXvXvXvXvXvXvX",
"vXvXvXvX*X@Xs.a T m.(.V.S } %.t 1 Y ] ` ,.m.@.K.}.}.}.|..X.X.X X`.D.n.#.o.} C } V n ` ..@ 6 6 e 3 @ q } B.v.E v q.&XvXvXvXvXvXvX",
"vXvXvXvX7Xw.oXq.d T :.A.E.z.O.$.' n q ` 7.M.@.J.K.@.K.}.}.P.}.(.P.n.@.} ` q w @.U 3 e q i 4 2 e 6 0 @.B.4.~ z a q.8XvXvXvXvXvXvX",
"vXvXvXvXrXq.w.w.^ l Q %.,.C.B.3.#.$.' Y ,.,.,.1.=.,. .g.' Y =.a.T g h w q 2 2 g 8 0 e 2 t # : > ) n.N.X.^ z ; c OXsXvXvXvXvXvXvX",
"vXvXvXvXvX&Xc e.q.r.! R *.R R 7.4.+.O.} O.` 8 *.g.<.0.U g ] U k g T f 3 # 7 6 4 7 8 @ o # 2 V n.A.4.R l ; X ^ &.OXxXxXxXxXvXvXvX",
"vXvXvXvXvXaXs.^ e.q.t.y.a.:.&.! R ..O.O.O.} Z _ =.] g g R U f 4 0 0 f 1 1 3 #   o @ : b S n.D.n. .k ! y $ l -.l 1XnXlXMXxXxXxXvX",
"vXvXvXvXvXvX1X( ^ s.t.y.g.a.a.:.%.k g Y ` o.2.O.O.V , e n 8 . 2 2 6 O O @ 2 @ > b D H 3.n.6.Y f Q t.%.% = &.l oXfXlXlXlXMXMXMXnX",
"vXvXvXvXvXvXkXOX! q.h.:.-.;.<.a.a.<.;.R R Y Y ` } O.2.F B b b M , , , B Z A S H 2.} ` U g g R <.H.f.R R ! = z 1XMXsXlXjXlXlXMXxX",
"vXvXvXvXvXvXvX0Xi.Q q.Q Q &.R R ! %.1.1.=.] h q h 0 9 q Y ) ) _ V m V D X._ n 0 8 7 y i  .9.K.L.Y.H.] Q % d @XfXsXsXjXjXlXlXMXxX",
"vXvXvXvXvXvXvXzX$X%.~ h.&.p.%.! R U g %.<.H.m.7.,.] R f 5 t 4 4 i i 7 i u 4 i g ] =.7.m.C.K.L.L.H.9.<.- X l 7XsXaXaXsXjXjXlXMXMX",
"vXvXvXvXvXvXvXvX1Xy.%.i.h.&.&.! ! ! T f ' Y =.9.9.,..... .] E U R T g U ] @.8.m.C.C.C.C.m.4.`  .<.f.k U s oXaXdXaXaXsXgXlXlXMXMX",
"vXvXvXvXvXvXvXvX7Xa.y.! d.i.( / j j ~ %.R ' 0 _ 9.7.7.m.m.7. .4 o % ~ >.7.C.Z.Z.D.P.Z.8.4.w q %.a.R X s c 1XdXdXdXaXaXsXlXlXMXMX",
"vXvXvXvXvXvXvXvXhXh.h.~ -.i.( T Q ! Q f i T =.,.m.m.m.7.` Y ] f # X o g ,.m.n.8...R Y @.2 8 h R ;.p U s oXrXeXdXdXdXaXsXlXlXMXxX",
"vXvXvXvXvXvXvXvXvX1Xu.i.T u.h.T i %.*.] } O.9.J.C.m.0.] ) ] ] R 7 % $ 6 _ m.4.q # 6 8 U f j 5 p y.T _ i oXdXeXdXdXaXaXjXlXMXMXxX",
"vXvXvXvXvXvXvXvXvXnXh.u.! x i.;.j T =.7.z.l.v.K.C.n.] Y ] R g f t $ i h V ] # # 8 Y 7 u ( - & %.%.U ' ^ 9XqXeXdXdXaXsXjXlXMXMXxX",
"vXvXvXvXvXvXvXvXvXvX0Xr.u.s a ( p.! E  .#.x.L P x.@.q ..f 4 0 g 8 T R 8 U 7 k f $ $ = $ $ X  .L.a.;.- +XqX9XeXdXaXsXjXlXlXxXxXnX",
"vXvXvXvXvXvXvXvXvXvXkXh.d.u.u $ y = 4 7 f ] h } b ) 5 E g $ k 0 Y  .f U $ i 8 # $ = t $ p  .L.U.a.2 e.8X9XqXeXaXaXsXjXlXMXxXxXvX",
"vXvXvXvXvXvXvXvXvXvXvXU.t.u.q.j a d s U U T U 8 8 $ $ 4 U 2 5 w [ =.Y q o $ 2 o p ] ] Y 7.I.J.f.T E +X9X9XeXdXaXsXjXjXMXxXxXvXvX",
"vXvXvXvXvXvXvXvXvXvXvX5X) l ^ x y a d R W f T g i $ X o i 0 6 o.+.X.Y U 7 7 f i Z 0 h ' 0.J.M.9.c t &XqXeXdXsXgXjXlXMXxXxXvXvXvX",
"vXvXvXvXvXvXvXvXvXvXvXxX#X^ x &.j T Q %.% - k i i 4 O $ f U ) +.x.O.C ` ] q w 0 3 ) 7.%.] ,.m.=.  u.eXeXaXsXjXjXlXxXxXxXvXvXvXvX",
"vXvXvXvXvXvXvXvXvXvXvXvXzXu.Q / ! p x ! d + * $ y g 0 f W ..4.l.P L L L C V ` ) ' 1.,.9.M.n.` . / qXdXaXgXjXlXMXxXxXnXvXvXvXvXvX",
"vXvXvXvXvXvXvXvXvXvXvXvXvX>Xi / ~ x = $ i p o i O 0 q g n C 3.G.G.l.P P C ` [ ] _ [ ) R R 3 1 OXrXsXsXjXlXzXxXxXxXvXvXvXvXvXvXvX",
"vXvXvXvXvXvXvXvXvXvXvXvXvXnXj.k t.! E ) q 6.` i 0 h q n o.C b o.l.P I I P +.` $.h 4 4 0 . -.2XlXjXjXlXlXxXxXnXnXvXvXvXvXvXvXvXvX",
"vXvXvXvXvXvXvXvXvXvXvXvXvXvXxXU.h ! ..+.n.F.x.k.o.{ _ ` o.C V A k.b.b.G.b.x.{ h # o 2 y.,XjXMXjXlXxXxXxXnXnXvXvXvXvXvXvXvXvXvXvX",
"vXvXvXvXvXvXvXvXvXvXvXvXvXvXvXxX=X` ` #.x.l.P L L F F o.F +.x.x.F.b.P L F < : @ ] OX2XjXxXzXzXzXxXnXnXnXvXvXvXvXvXvXvXvXvXvXvXvX",
"vXvXvXvXvXvXvXvXvXvXvXvXvXvXvXvXvXuX=Xn.z.H N J N J L L P P P K N N r M B >.#X5XhXnXvXxXxXnXxXxXnXnXnXvXvXvXvXvXvXvXvXvXvXvXvXvX",
"vXvXvXvXvXvXvXvXvXvXvXvXvXvXvXvXvXvXnXiX4X:X).D.z.l.x.x.3.+.4.7.H.#X;X5XuXxXvXvXvXnXnXvXvXvXvXvXvXvXvXvXvXvXvXvXvXvXvXvXvXvXvXvX",
"vXvXvXvXvXvXvXvXvXvXvXvXvXvXvXvXvXvXvXvXvXnXxXkXhXiXyXyXyXhXkXnXvXvXvXvXvXvXnXnXvXvXvXvXvXvXvXvXvXvXvXvXvXvXvXvXvXvXvXvXvXvXvXvX",
"vXvXvXvXvXvXvXvXvXvXvXvXvXvXvXvXvXvXvXvXvXvXvXvXvXvXvXvXvXvXvXvXvXvXnXnXvXvXvXvXvXvXvXvXvXvXvXvXvXvXvXvXvXvXvXvXvXvXvXvXvXvXvXvX",
"vXvXvXvXvXvXvXvXvXvXvXvXvXvXvXvXvXvXvXvXvXvXvXvXvXvXvXvXvXvXvXvXvXvXvXvXvXvXvXvXvXvXvXvXvXvXvXvXvXvXvXvXvXvXvXvXvXvXvXvXvXvXvXvX",
"vXvXvXvXvXvXvXvXvXvXvXvXvXvXvXvXvXvXvXvXvXvXvXvXvXvXvXvXvXvXvXvXvXvXvXvXvXvXvXvXvXvXvXvXvXvXvXvXvXvXvXvXvXvXvXvXvXvXvXvXvXvXvXvX",
"vXvXvXvXvXvXvXvXvXvXvXvXvXvXvXvXvXvXvXvXvXvXvXvXvXvXvXvXvXvXvXvXvXvXvXvXvXvXvXvXvXvXvXvXvXvXvXvXvXvXvXvXvXvXvXvXvXvXvXvXvXvXvXvX",
"vXvXvXvXvXvXvXvXvXvXvXvXvXvXvXvXvXvXvXvXvXvXvXvXvXvXvXvXvXvXvXvXvXvXvXvXvXvXvXvXvXvXvXvXvXvXvXvXvXvXvXvXvXvXvXvXvXvXvXvXvXvXvXvX",
"vXvXvXvXvXvXvXvXvXvXvXvXvXvXvXvXvXvXvXvXvXvXvXvXvXvXvXvXvXvXvXvXvXvXvXvXvXvXvXvXvXvXvXvXvXvXvXvXvXvXvXvXvXvXvXvXvXvXvXvXvXvXvXvX",
"vXvXvXvXvXvXvXvXvXvXvXvXvXvXvXvXvXvXvXvXvXvXvXvXvXvXvXvXvXvXvXvXvXvXvXvXvXvXvXvXvXvXvXvXvXvXvXvXvXvXvXvXvXvXvXvXvXvXvXvXvXvXvXvX",
"vXvXvXvXvXvXvXvXvXvXvXvXvXvXvXvXvXvXvXvXvXvXvXvXvXvXvXvXvXvXvXvXvXvXvXvXvXvXvXvXvXvXvXvXvXvXvXvXvXvXvXvXvXvXvXvXvXvXvXvXvXvXvXvX"
};
